<?xml version="1.0" encoding="UTF-8" standalone="no"?>
<!-- Created with Inkscape (http://www.inkscape.org/) -->

<svg
   xmlns:dc="http://purl.org/dc/elements/1.1/"
   xmlns:cc="http://creativecommons.org/ns#"
   xmlns:rdf="http://www.w3.org/1999/02/22-rdf-syntax-ns#"
   xmlns:svg="http://www.w3.org/2000/svg"
   xmlns="http://www.w3.org/2000/svg"
   xmlns:inkscape="http://www.inkscape.org/namespaces/inkscape"
   version="1.1"
   width="580"
   height="320"
   id="svg6724">
  <defs
     id="defs6726" />
  <metadata
     id="metadata6729">
    <rdf:RDF>
      <cc:Work
         rdf:about="">
        <dc:format>image/svg+xml</dc:format>
        <dc:type
           rdf:resource="http://purl.org/dc/dcmitype/StillImage" />
        <dc:title />
      </cc:Work>
    </rdf:RDF>
  </metadata>
  <g
     transform="translate(0,-732.36218)"
     id="layer1">
    <g
       transform="translate(0,-1.3335702)"
       id="g7029">
      <g
         id="g7016">
        <path
           d="m 385.21875,235.09375 0,0.8125 -0.78125,0 0,66.96875 0,0.78125 0.78125,0 48.875,0 0.78125,0 0,-0.78125 0,-6.90625 0,-0.78125 -0.78125,0 -40.53125,0 0,-21.84375 35.75,0 0.78125,0 0,-0.8125 0,-6.875 0,-0.78125 -0.78125,0 -35.75,0 0,-21.28125 40.0625,0 0.78125,0 0,-0.8125 0,-6.875 0,-0.8125 -0.78125,0 -48.40625,0 z m 64.09375,0 0,0.8125 -0.8125,0 0,66.96875 0,0.78125 0.8125,0 48.875,0 0.78125,0 0,-0.78125 0,-6.90625 0,-0.78125 -0.78125,0 -40.53125,0 0,-21.84375 35.75,0 0.78125,0 0,-0.8125 0,-6.875 0,-0.78125 -0.78125,0 -35.75,0 0,-21.28125 40.0625,0 0.78125,0 0,-0.8125 0,-6.875 0,-0.8125 -0.78125,0 -48.40625,0 z M 386,236.6875 l 46.84375,0 0,5.3125 -40.0625,0 -0.8125,0 0,0.78125 0,22.875 0,0.78125 0.8125,0 35.75,0 0,5.3125 -35.75,0 -0.8125,0 0,0.78125 0,23.4375 0,0.8125 0.8125,0 40.53125,0 0,5.28125 -47.3125,0 0,-65.375 z m 64.09375,0 46.8125,0 0,5.3125 -40.03125,0 -0.8125,0 0,0.78125 0,22.875 0,0.78125 0.8125,0 35.75,0 0,5.3125 -35.75,0 -0.8125,0 0,0.78125 0,23.4375 0,0.8125 0.8125,0 40.53125,0 0,5.28125 -47.3125,0 0,-65.375 z"
           inkscape:connector-curvature="0"
           transform="translate(0,732.36218)"
           id="path7002"
           style="font-size:90.71687317px;font-style:normal;font-variant:normal;font-weight:normal;font-stretch:normal;text-indent:0;text-align:start;text-decoration:none;line-height:125%;letter-spacing:0px;word-spacing:0px;text-transform:none;direction:ltr;block-progression:tb;writing-mode:lr-tb;text-anchor:start;baseline-shift:baseline;color:#000000;fill:#baa36d;fill-opacity:1;fill-rule:nonzero;stroke:none;stroke-width:1.58184123;marker:none;visibility:visible;display:inline;overflow:visible;enable-background:accumulate;font-family:Gotham Book;-inkscape-font-specification:'Gotham Book,'" />
        <path
           d="m 110.0625,233.96875 c -5.20112,0 -9.96231,0.97435 -14.28125,2.9375 -4.299348,1.88858 -7.990639,4.4506 -11.0625,7.71875 -3.070021,3.20036 -5.462957,6.98344 -7.15625,11.28125 -1.694135,4.30085 -2.53125,8.78179 -2.53125,13.46875 l 0,0.1875 c 0,4.6841 0.809339,9.2022 2.4375,13.5 1.693348,4.233 4.091441,7.9893 7.15625,11.25 3.069623,3.2001 6.736589,5.76765 10.96875,7.65625 4.316997,1.8963 9.08347,2.84375 14.28125,2.84375 5.19768,0 9.96416,-0.94745 14.28125,-2.84375 4.29245,-1.9521 7.99265,-4.549 11.0625,-7.75 3.06657,-3.2626 5.46335,-7.04725 7.15625,-11.34375 1.68643,-4.2815 2.52357,-8.7732 2.53125,-13.4375 3e-5,-0.021 0,-0.0425 0,-0.0625 0.007,-0.042 0.0625,-0.0487 0.0625,-0.0937 0,-0.045 -0.0558,-0.0507 -0.0625,-0.0937 0,-0.021 3e-5,-0.0415 0,-0.0625 -0.008,-4.65448 -0.85087,-9.10025 -2.53125,-13.3125 -0.003,-0.009 0.003,-0.0223 0,-0.0312 -1.62941,-4.29046 -3.99694,-8.0551 -7.0625,-11.25 -3.07186,-3.26815 -6.76325,-5.82931 -11.0625,-7.71875 -4.25604,-1.89919 -8.98999,-2.84375 -14.1875,-2.84375 z m -94.0625,1.125 0,0.8125 -0.78125,0 0,66.96875 0,0.78125 0.78125,0 7.5625,0 0.78125,0 0,-0.78125 0,-28.40625 35.46875,0 0.78125,0 0,-0.78125 0,-6.875 0,-0.8125 -0.78125,0 -35.46875,0 0,-22.3125 39.78125,0 0.78125,0 0,-0.8125 0,-6.96875 0,-0.8125 -0.78125,0 -48.125,0 z m 142.40625,0 0,0.8125 0,38.9375 c 0,4.7934 0.68482,9.0728 2.0625,12.8125 1.37267,3.7249 3.30553,6.8643 5.8125,9.4375 l 0,0.0312 0.0312,0 c 2.56595,2.5007 5.58733,4.40805 9.0625,5.71875 3.53777,1.2455 7.43355,1.8749 11.65625,1.875 4.28524,0 8.17774,-0.6273 11.65625,-1.875 3.53634,-1.3092 6.55852,-3.27935 9.0625,-5.84375 l 0.0312,0 c 2.56734,-2.5729 4.56713,-5.778 5.9375,-9.5625 1.37723,-3.8042 2.03125,-8.2052 2.03125,-13.1875 l 0,-38.34375 0,-0.8125 -0.78125,0 -7.5625,0 -0.78125,0 0,0.8125 0,38.9375 c -1e-4,7.2038 -1.76659,12.4863 -5.21875,16 -3.47827,3.5389 -8.15869,5.3125 -14.1875,5.3125 -6.28233,0 -11.0552,-1.87405 -14.53125,-5.59375 -3.40576,-3.7101 -5.15625,-9.07625 -5.15625,-16.21875 l 0,-38.4375 0,-0.8125 -0.78125,0 -7.5625,0 -0.78125,0 z m 74.53125,0 0,0.8125 -0.78125,0 0,66.96875 0,0.78125 0.78125,0 7.5625,0 0.78125,0 0,-0.78125 0,-25.25 17.9375,0 19.1875,25.71875 0.25,0.3125 0.375,0 9.28125,0 1.59375,0 -0.9375,-1.25 L 269.09375,276 c 2.20667,-0.4637 4.31251,-1.08305 6.25,-1.96875 l 0.0312,0 c 2.30276,-1.1189 4.27586,-2.5258 5.9375,-4.1875 1.72871,-1.7288 3.06849,-3.7364 4,-6 0.93436,-2.3371 1.40625,-4.95358 1.40625,-7.84375 l 0,-0.1875 c 0,-2.76651 -0.47389,-5.35447 -1.40625,-7.6875 -0.93053,-2.3273 -2.26804,-4.35996 -4,-6.09375 -2.19818,-2.19637 -4.96706,-3.88248 -8.3125,-5.0625 -3.2953,-1.25195 -7.05874,-1.875 -11.28125,-1.875 l -28.78125,0 z m 69.125,0 0,0.8125 -0.78125,0 0,66.96875 0,0.78125 0.78125,0 7.375,0 0.78125,0 0,-0.78125 0,-51.625 22.96875,33.6875 0.21875,0.34375 0.40625,0 0.40625,0 0.40625,0 0.25,-0.34375 22.9375,-33.75 0,51.6875 0,0.78125 0.78125,0 7.5625,0 0.8125,0 0,-0.78125 0,-66.96875 0,-0.8125 -0.8125,0 -7.65625,0 -0.40625,0 -0.25,0.375 -23.71875,35.5625 -23.75,-35.5625 -0.21875,-0.375 -0.4375,0 -7.65625,0 z m 208.90625,0 0,0.8125 0,6.78125 0,0.78125 0.8125,0 40.28125,0 -42.34375,53.84375 0.59375,0.46875 -0.78125,0 0,5.09375 0,0.78125 0.8125,0 53.65625,0 0.78125,0 0,-0.78125 0,-6.8125 0,-0.78125 -0.78125,0 -41.8125,0 42.4375,-53.8125 0.15625,-0.21875 0,-0.28125 0,-5.0625 0,-0.8125 -0.78125,0 -52.21875,0 -0.8125,0 z m -401.09375,7.4375 c 3.7256,0 7.10778,0.70832 10.1875,2.125 3.16517,1.42746 5.89912,3.3379 8.1875,5.75 2.28538,2.40829 4.0398,5.24094 5.28125,8.53125 l 0,0.0312 c 1.29969,3.21896 1.96865,6.67099 1.96875,10.40625 l 0,0.1875 c -1e-4,3.7343 -0.66913,7.2195 -1.96875,10.4375 -1.24241,3.2302 -2.9608,6.05635 -5.1875,8.46875 -2.21283,2.3973 -4.9162,4.29395 -8.0625,5.71875 -3.08202,1.3565 -6.48872,2.0625 -10.21875,2.0625 -3.72582,0 -7.13468,-0.706 -10.28125,-2.125 -3.101949,-1.4269 -5.802923,-3.36665 -8.09375,-5.78125 -2.290351,-2.4143 -4.070497,-5.2066 -5.375,-8.4375 -1.240879,-3.2879 -1.875,-6.79255 -1.875,-10.53125 l 0,-0.1875 c 0,-3.72802 0.643016,-7.19244 1.875,-10.40625 0.0036,-0.009 -0.0036,-0.022 0,-0.0312 1.305073,-3.22297 3.058142,-6.02908 5.28125,-8.4375 2.222289,-2.40849 4.873349,-4.2939 7.96875,-5.65625 l 0.03125,0 c 3.14647,-1.41908 6.55545,-2.125 10.28125,-2.125 z m 131.40625,1.15625 19.875,0 c 5.3063,0 9.30914,1.12649 12.125,3.34375 l 0.0312,0.0312 c 2.8148,2.15566 4.1875,5.07647 4.1875,9.03125 l 0,0.1875 c 0,2.06033 -0.41896,3.86726 -1.25,5.46875 l -0.0312,0 c -0.76938,1.53965 -1.85177,2.89176 -3.28125,4.03125 -0.0119,0.01 -0.0193,0.0218 -0.0312,0.0312 -1.4412,1.07417 -3.17327,1.92035 -5.1875,2.53125 -2.02185,0.6124 -4.23661,0.90625 -6.65625,0.90625 l -19.78125,0 0,-25.5625 z"
           inkscape:connector-curvature="0"
           transform="translate(0,732.36218)"
           id="path6261"
           style="font-size:90.71687317px;font-style:normal;font-variant:normal;font-weight:normal;font-stretch:normal;text-align:start;line-height:125%;letter-spacing:0px;word-spacing:0px;writing-mode:lr-tb;text-anchor:start;fill:#014157;fill-opacity:1;stroke:none;font-family:Gotham Book;-inkscape-font-specification:'Gotham Book,'" />
        <path
           d="m 385.21875,235.90625 0,66.96875 48.875,0 0,-6.875 -41.3125,0 0,-23.4375 36.53125,0 0,-6.90625 -36.53125,0 0,-22.84375 40.84375,0 0,-6.90625 -48.40625,0 z m 64.09375,0 0,66.96875 48.875,0 0,-6.875 -41.3125,0 0,-23.4375 36.53125,0 0,-6.90625 -36.53125,0 0,-22.84375 40.84375,0 0,-6.90625 -48.40625,0 z"
           inkscape:connector-curvature="0"
           transform="translate(0,732.36218)"
           id="path6271"
           style="font-size:90.71687317px;font-style:normal;font-variant:normal;font-weight:normal;font-stretch:normal;text-align:start;line-height:125%;letter-spacing:0px;word-spacing:0px;writing-mode:lr-tb;text-anchor:start;fill:#baa36d;fill-opacity:1;stroke:none;font-family:Gotham Book;-inkscape-font-specification:'Gotham Book,'" />
      </g>
      <path
         d="m 320.34375,85.15625 -5.875,6.15625 -33.34375,34.625 c 5.30279,-1.8253 16.20823,-5.93259 22.09375,-9.625 0.68101,-1.87815 0.59082,-5.38322 0.375,-9.1875 -0.002,-0.0521 -0.002,-0.10418 0,-0.15625 l 0,-0.125 c -0.007,-0.17754 0.003,-0.35579 0.0312,-0.53125 l 0.0312,-0.125 c 0.0185,-0.0632 0.0394,-0.1258 0.0625,-0.1875 0.37967,-1.4198 1.42794,-2.36093 2.15625,-2.8125 0.0104,-6e-5 0.0208,-6e-5 0.0312,0 0.7596,-0.47001 1.5368,-0.75072 2.3125,-0.9375 0.01,-0.002 0.0213,0.002 0.0312,0 0.81092,-0.19375 1.68473,-0.30245 2.5625,-0.28125 0.01,2.1e-4 0.0213,-2.5e-4 0.0312,0 0.92112,0.0229 1.87904,0.19426 2.8125,0.53125 2.03184,0.734 3.97073,2.54489 4.53125,5.15625 0.2059,0.95811 0.11836,1.91272 0,2.875 0.60786,-0.22827 1.19215,-0.42466 1.96875,-0.65625 0.0369,-0.011 0.0645,-0.0199 0.0937,-0.0312 l 0.59375,-0.625 c 0.10982,0.10596 0.2643,0.23704 0.375,0.34375 0.0104,-6e-5 0.0208,-6e-5 0.0312,0 0.025,-0.003 0.0365,0.002 0.0625,0 0.10959,-0.009 0.12161,-0.0625 0.25,-0.0625 0.0524,0.009 0.10449,0.0194 0.15625,0.0312 0.0104,-6e-5 0.0208,-6e-5 0.0312,0 2.35281,-0.3507 4.72062,0.51773 6,2.53125 0.68765,1.0818 0.86782,2.42925 0.59375,3.78125 0.3489,0.39173 0.64922,0.86272 0.875,1.375 30.49913,28.94901 79.65625,73.625 79.65625,73.625 l 20.96875,0 c 0,0 -68.89531,-66.49611 -103.34375,-99.75 l -6.15625,-5.9375 z m -50,52 -5.84375,6.0625 c -0.9688,4.66621 -2.86515,8.3044 -5.65625,10.875 -2.31132,2.12872 -5.12684,3.34964 -8.15625,3.96875 9.7e-4,0.0417 9.7e-4,0.0833 0,0.125 0.0903,2.35903 -0.0588,4.88171 -0.5,7.59375 -0.15481,0.95365 -0.45612,1.72786 -0.71875,2.5625 2.32926,1.97067 4.72612,4.46521 7.125,7.125 l 0.25,0.21875 33.75,-35.03125 c -2.82988,0.4065 -5.32678,0.7157 -7.0625,0.9375 -3.04669,0.38964 -5.7344,-0.5173 -7.8125,-1.625 -0.20562,-0.0491 -0.40539,-0.12274 -0.59375,-0.21875 l -4.78125,-2.59375 z m 71.25,8.0625 -9.09375,0.0625 c -2.60637,0.0183 -4.7058,2.1437 -4.6875,4.75 l 0.0625,9.0625 c 0.0183,2.60629 2.14363,4.7058 4.75,4.6875 l 9.09375,-0.0625 c 2.60637,-0.0183 4.67455,-2.1437 4.65625,-4.75 l -0.0625,-9.09375 c -0.0183,-2.6063 -2.11238,-4.67455 -4.71875,-4.65625 z m -22.40625,0.15625 -9.09375,0.0625 c -2.60637,0.0183 -4.67455,2.1437 -4.65625,4.75 L 305.5,159.25 c 0.0183,2.60629 2.14363,4.7058 4.75,4.6875 l 9.0625,-0.0625 c 2.60637,-0.0183 4.7058,-2.1437 4.6875,-4.75 l -0.0625,-9.09375 c -0.0183,-2.60629 -2.14363,-4.67455 -4.75,-4.65625 z m 22.5625,21.59375 -9.09375,0.0625 c -2.60637,0.0183 -4.7058,2.11246 -4.6875,4.71875 l 0.0625,9.09375 c 0.0183,2.60648 2.14363,4.67455 4.75,4.65625 l 9.09375,-0.0625 c 2.60637,-0.0183 4.67455,-2.11227 4.65625,-4.71875 l -0.0625,-9.09375 c -0.0183,-2.60629 -2.11238,-4.67455 -4.71875,-4.65625 z m -22.40625,0.15625 -9.09375,0.0625 c -2.60637,0.0183 -4.67455,2.11246 -4.65625,4.71875 L 305.65625,181 c 0.0183,2.60648 2.14363,4.67455 4.75,4.65625 l 9.0625,-0.0625 c 2.60637,-0.0183 4.7058,-2.11227 4.6875,-4.71875 l -0.0625,-9.09375 c -0.0183,-2.6063 -2.14363,-4.67455 -4.75,-4.65625 z"
         inkscape:connector-curvature="0"
         transform="translate(0,732.36218)"
         id="path6281"
         style="fill:#baa36d;fill-opacity:1;stroke:none" />
      <g
         id="g7021">
        <path
           d="m 288.25,17.875 c -2.19385,0.151654 -4.7755,1.181741 -7.03125,3.34375 -13.17186,9.962964 -21.37251,23.443894 -28.03125,38.0625 -2.0821,-0.28349 -4.24995,-0.203734 -6.40625,0.34375 -8.02139,2.036626 -13.23394,9.575012 -12.59375,17.46875 -0.8054,2.064421 -1.43381,4.28254 -1.875,6.625 -1.3348,7.7675 0.68415,16.05476 6.21875,22.5 11.4182,12.41103 35.3324,7.98698 53.25,-3.3125 19.5464,-10.42898 12.27055,-21.48523 0.0312,-30.34375 -1.93015,-1.465841 -3.84421,-2.769024 -5.71875,-3.96875 -2.48043,-5.928109 -8.51906,-9.715504 -14.96875,-9.40625 13.78517,-7.97559 28.38814,-14.241472 45.3125,-15.5625 11.6468,-2.04991 4.3611,-11.15254 -5.1875,-8.1875 -1.4116,0.26338 -2.78585,0.59645 -4.15625,0.9375 C 291.16579,40.349826 277.96107,49.480236 265.5,60 262.26983,59.452938 259.2051,59.357353 256.34375,59.65625 265.01715,46.63231 275.1946,34.781045 289.5,26.1875 c 6.53524,-4.836831 3.57648,-8.646139 -1.25,-8.3125 z M 180.78125,96 c -1.08914,-0.0105 -2.09106,0.25204 -2.96875,0.71875 -1.75538,0.93341 -2.98429,2.62189 -3.6875,4.59375 -1.40643,3.94371 -0.86953,9.10585 2.28125,12.09375 l 0.0312,0.0312 0.0625,0.0625 c 10.85217,7.2776 29.35748,12.6254 36.78125,15.3125 2.34074,0.84671 5.08602,0.5325 6.9375,-0.0625 l 0,0.0312 10.375,-2.90625 c -0.67428,1.27426 -1.32153,2.57374 -1.875,3.90625 -4.215,10.13524 -4.185,21.41714 10.875,25.25 13.81674,3.51703 25.07915,-2.82616 22.84375,-25.1875 l 13.9375,7.53125 0.0312,0 c 1.67647,0.98711 4.31091,1.87875 6.78125,1.5625 7.9373,-1.01409 30.1586,-4.09396 42.3125,-8.8125 l 0.1875,-0.0937 0.125,-0.125 c 0.59919,-0.63089 0.98902,-1.15996 1.1875,-1.71875 0.19848,-0.55879 0.15123,-1.18172 -0.0937,-1.625 -0.23239,-0.42041 -0.54636,-0.69382 -0.84375,-0.90625 0.12019,-0.1433 0.34649,-0.18589 0.4375,-0.34375 0.33848,-0.58711 0.51457,-1.25736 0.53125,-1.9375 0.0167,-0.68014 -0.10289,-1.37106 -0.5,-1.96875 -0.11294,-0.16998 -0.30907,-0.29682 -0.46875,-0.4375 0.53534,-0.60407 0.90868,-1.31648 0.84375,-2.125 -0.0786,-0.97854 -0.8912,-1.76988 -2,-2.3125 0.26751,-0.29996 0.72142,-0.52875 0.84375,-0.875 0.26473,-0.74929 0.13266,-1.55381 -0.25,-2.15625 -0.75497,-1.18861 -2.35264,-1.76586 -3.9375,-1.28125 l 0,-0.0312 c -0.0237,0.006 -0.0388,0.0255 -0.0625,0.0312 -1.46359,0.35851 -2.78888,0.95237 -4.0625,1.34375 -0.98133,0.30156 -1.92345,0.40963 -2.875,0.3125 0.93993,-2.31164 1.30935,-4.214 1,-5.65625 -0.35959,-1.67649 -1.55361,-2.75233 -2.84375,-3.21875 -0.64507,-0.23321 -1.31115,-0.32909 -1.96875,-0.34375 -0.6576,-0.0147 -1.28968,0.0472 -1.875,0.1875 -0.58532,0.14029 -1.11584,0.34822 -1.5625,0.625 -0.44666,0.27678 -0.87475,0.63108 -1.03125,1.21875 l -0.0312,0.125 0,0.125 c 0.22603,3.98645 0.72334,8.24373 -0.75,11.125 -6.34932,4.2527 -18.32969,8.65719 -23.8125,10.53125 l -0.0625,0.0312 -0.0312,0 c -2.28779,1.15179 -4.62305,-0.0187 -5.78125,-0.53125 l -0.0312,-0.0312 L 261.21875,122 c -0.002,-0.01 0.002,-0.0215 0,-0.0312 -0.39039,-1.90617 -0.85247,-3.91089 -1.40625,-6 -0.2268,0.0268 -0.4572,0.0536 -0.6875,0.0625 l -0.0625,0 -0.0625,0.0312 c -6.4363,0.40355 -12.57075,-1.04745 -17.90625,-3.84375 -1.3838,1.05274 -3.19475,2.91958 -5.0625,5.28125 l -13.15625,2.3125 -0.0312,0.0312 c -1.24196,0.24733 -3.76886,0.90557 -5.75,-0.71875 l -0.0625,-0.0625 -0.0312,0 c -4.96323,-3.04098 -15.79292,-10.0113 -21.03125,-15.5625 -0.42106,-1.49015 -0.88452,-2.63585 -1.46875,-3.40625 -0.6327,-0.83432 -1.39391,-1.31916 -2.09375,-1.5625 -0.69984,-0.24334 -1.31642,-0.26795 -1.78125,-0.34375 -0.46483,-0.0758 -0.73786,-0.15015 -0.9375,-0.34375 l -0.25,-0.28125 -0.375,0.03125 c -1.58522,0.10513 -2.2458,0.17709 -2.65625,0.125 -0.41045,-0.0521 -0.84791,-0.251 -2.125,-0.875 -1.22519,-0.5707 -2.41086,-0.83325 -3.5,-0.84375 z m 38.5,40 c -3.767,-0.0179 -7.64035,0.37236 -11.46875,1.15625 -10.6683,2.18115 -20.8306,7.34051 -26.75,14.46875 -5.9194,7.13003 -7.79165,16.05049 -1.96875,26.65625 1.1544,2.07223 2.4715,3.83133 3.9375,5.375 5.981,-6.13989 13.518,-12.98124 16.75,-12.75 -5.5925,4.16349 -10.49793,9.18862 -15,14.4375 0.0224,0.0193 0.0401,0.0433 0.0625,0.0625 -2.79547,3.37983 -5.30241,6.72787 -7.71875,9.75 -4.6239,5.78187 -8.90295,10.34206 -14.34375,12.34375 -8.11048,-1.52701 -14.21045,2.46142 -14.375,9.21875 -27.76474,2.75421 -46.0625,5.03125 -46.0625,5.03125 l 192.34375,0.125 182.96875,-1.9375 c 0,0 -93.779,-13.97404 -181.1875,-12.59375 -2.52065,0.0398 -5.05567,0.0679 -7.59375,0.125 -2.13606,-3.34357 -6.63723,-5.49231 -10.15625,-4.1875 -4.0663,-1.63743 -5.7484,-3.34128 -9.25,-7.71875 -4.48058,-5.60336 -15.38114,-20.59089 -23,-26.40625 0.46654,-1.15129 0.83641,-2.38788 1.0625,-3.78125 0.4151,-2.55167 0.55175,-4.89385 0.46875,-7.0625 -2.8954,0.22142 -5.95815,-0.0911 -9.03125,-0.875 -8.0996,-2.0624 -12.84825,-6.52257 -14.46875,-11.9375 -0.8955,-2.98915 -0.89555,-6.11175 -0.34375,-9.21875 -1.5919,-0.17231 -3.2224,-0.27143 -4.875,-0.28125 z m -6.8125,38.1875 c -1.88985,6.29409 -2.7085,11.35525 -4.625,16.875 -0.84778,2.47669 -1.84737,4.91818 -3.09375,7.1875 -1.8838,3.41681 -2.7805,5.40367 -4.875,7.625 -5.57885,-0.17389 -12.78887,2.50265 -13.375,7.375 -3.90187,0.32448 -7.708,0.67142 -11.4375,1 1.17153,-1.04104 2.54324,-2.4265 3.5,-3.59375 6.70101,-8.17844 11.74298,-14.79131 16.1875,-20.15625 3.08784,0.82368 6.36788,1.17757 9.71875,1.09375 2.05814,-5.37515 3.57454,-11.22261 6.34375,-16.28125 0.55992,-0.3814 1.07838,-0.74204 1.65625,-1.125 z m 28.9375,1.875 c 6.73908,6.4868 16.41193,20.63164 25.6875,32.125 -1.5737,0.0619 -3.14539,0.12045 -4.71875,0.1875 -0.97174,-3.83011 -6.2363,-3.76659 -9.71875,-3.75 -5.71875,-3.21713 -9.70251,-16.48923 -12.90625,-27.0625 0.57378,-0.49671 1.13493,-0.99629 1.65625,-1.5 z m -9.5625,7.09375 c 2.15327,9.12822 4.19828,18.48764 10.78125,26.15625 -12.07737,0.66443 -23.94697,1.46829 -35.40625,2.3125 0.91264,-0.40664 1.80073,-0.89754 2.40625,-1.75 5.49578,-7.76657 7.66612,-14.87331 9.03125,-20.8125 4.68405,-1.48866 9.17913,-3.54377 13.1875,-5.90625 z"
           inkscape:connector-curvature="0"
           transform="translate(0,732.36218)"
           id="path6293"
           style="font-size:medium;font-style:normal;font-variant:normal;font-weight:normal;font-stretch:normal;text-indent:0;text-align:start;text-decoration:none;line-height:normal;letter-spacing:normal;word-spacing:normal;text-transform:none;direction:ltr;block-progression:tb;writing-mode:lr-tb;text-anchor:start;baseline-shift:baseline;color:#000000;fill:#014157;fill-opacity:1;fill-rule:nonzero;stroke:none;stroke-width:5.68895149;marker:none;visibility:visible;display:inline;overflow:visible;enable-background:accumulate;font-family:Sans;-inkscape-font-specification:Sans" />
        <path
           d="m 6630.7143,12179.684 a 9.4642859,9.4642859 0 1 1 -18.9286,0 9.4642859,9.4642859 0 1 1 18.9286,0 z"
           transform="matrix(1.3196201,-0.33505102,0.330332,1.301034,-12507.108,-12817.503)"
           id="path6315"
           style="fill:#ffffff;fill-opacity:1;stroke:none" />
        <path
           d="m 6630.7143,12179.684 a 9.4642859,9.4642859 0 1 1 -18.9286,0 9.4642859,9.4642859 0 1 1 18.9286,0 z"
           transform="matrix(0.72486181,-0.18404211,0.15572796,0.61334464,-6437.849,-5436.2643)"
           id="path6317"
           style="fill:#baa36d;fill-opacity:1;stroke:none" />
        <path
           d="m 274.8047,837.29351 c -15.8814,1.80616 -17.9179,-3.48377 -20.0249,-4.84263 -0.1214,2.04722 2.3151,10.91913 20.0249,4.84263 z"
           inkscape:connector-curvature="0"
           id="path6321"
           style="fill:#ffffff;stroke:none" />
        <path
           d="m 193.42953,855.77466 -10.9337,-47.14872 c 0.20435,-3.45007 2.78834,-4.26242 6.19246,-4.16601 l 5.75824,-0.30778 -1.0659,-8.20654 -7.40074,0.49318 c -2.88701,2.58651 -5.09199,0.88179 -7.47519,0.29053 -11.23414,0.53448 -18.83802,12.52028 -19.24354,17.86996 l 1.16476,-0.0992 c 4.34907,-6.28886 8.41874,-7.58917 12.41031,-7.50803 1.6965,0.16916 2.78951,1.43939 3.01092,4.30479 l 5.38137,45.11702 c 0.34136,4.13401 12.38331,2.62152 12.30114,-0.77625 z"
           inkscape:connector-curvature="0"
           id="path6329"
           style="fill:#baa36d;fill-opacity:1;stroke:none" />
        <path
           d="m 188.375,96.34375 c -0.67213,0.0043 -1.25762,0.108094 -1.78125,0.28125 -1.01954,0.33424 -1.76118,0.93603 -2.25,1.6875 l 0,0.03125 c -0.1082,0.16467 -0.19859,0.324739 -0.28125,0.5 -0.71074,-0.66212 -1.76329,-1.163866 -3,-1.34375 -2.3962,-0.348536 -4.52028,0.639435 -4.75,2.21875 -0.12532,0.86161 0.3492,1.7177 1.1875,2.375 -0.37942,0.35252 -0.64843,0.76655 -0.71875,1.25 -0.13749,0.94525 0.44073,1.85463 1.4375,2.53125 -1.1621,0.36166 -1.98646,1.11001 -2.125,2.0625 -0.13338,0.917 0.40153,1.82859 1.34375,2.5 -0.56489,0.39291 -0.94219,0.91894 -1.03125,1.53125 -0.22972,1.57931 1.51005,3.12021 3.90625,3.46875 2.3962,0.34854 4.52028,-0.63944 4.75,-2.21875 0.13311,-0.91512 -0.40512,-1.82898 -1.34375,-2.5 0.57695,-0.39449 0.97231,-0.91116 1.0625,-1.53125 0.13764,-0.94631 -0.43866,-1.88571 -1.4375,-2.5625 0.76185,-0.24432 1.35315,-0.66271 1.71875,-1.1875 0.2636,0.26883 0.56566,0.49461 1,0.5625 l 0.15625,0 0.125,0 c 3.79139,-0.63279 7.79048,-1.52616 10.78125,-0.5625 -0.30809,-1.49883 -1.27265,-7.1922 -4.8125,-8.46875 -1.49358,-0.423625 -2.81729,-0.632131 -3.9375,-0.625 z"
           inkscape:connector-curvature="0"
           transform="translate(0,732.36218)"
           id="path6331"
           style="font-size:medium;font-style:normal;font-variant:normal;font-weight:normal;font-stretch:normal;text-indent:0;text-align:start;text-decoration:none;line-height:normal;letter-spacing:normal;word-spacing:normal;text-transform:none;direction:ltr;block-progression:tb;writing-mode:lr-tb;text-anchor:start;baseline-shift:baseline;color:#000000;fill:#014157;fill-opacity:1;fill-rule:nonzero;stroke:none;stroke-width:1.89999998;marker:none;visibility:visible;display:inline;overflow:visible;enable-background:accumulate;font-family:Sans;-inkscape-font-specification:Sans" />
      </g>
    </g>
  </g>
</svg>
